<mxfile host="65bd71144e">
    <diagram id="2046acFo5O6Mica_T_tD" name="Page-1">
        <mxGraphModel dx="514" dy="445" grid="1" gridSize="10" guides="1" tooltips="1" connect="1" arrows="1" fold="1" page="1" pageScale="1" pageWidth="850" pageHeight="1100" math="0" shadow="0">
            <root>
                <mxCell id="0"/>
                <mxCell id="1" parent="0"/>
                <mxCell id="2" value="laser projector" style="rounded=0;whiteSpace=wrap;html=1;align=left;verticalAlign=top;" parent="1" vertex="1">
                    <mxGeometry x="120" y="240" width="1766" height="641" as="geometry"/>
                </mxCell>
                <mxCell id="33" value="laser controller (raspbery pi 4)" style="rounded=0;whiteSpace=wrap;html=1;fillColor=#fad9d5;strokeColor=#ae4132;align=left;verticalAlign=top;" parent="1" vertex="1">
                    <mxGeometry x="140" y="270" width="786" height="541" as="geometry"/>
                </mxCell>
                <mxCell id="4" value="Mirror(s)" style="rounded=0;whiteSpace=wrap;html=1;fillColor=#ffff88;strokeColor=#36393d;" parent="1" vertex="1">
                    <mxGeometry x="1948.78" y="282.25" width="120" height="139" as="geometry"/>
                </mxCell>
                <mxCell id="19" value="" style="edgeStyle=none;html=1;startArrow=block;startFill=1;endArrow=none;endFill=0;" parent="1" edge="1">
                    <mxGeometry relative="1" as="geometry">
                        <mxPoint x="1783.78" y="303.25" as="sourcePoint"/>
                        <mxPoint x="1758.78" y="303.25" as="targetPoint"/>
                    </mxGeometry>
                </mxCell>
                <mxCell id="20" value="" style="edgeStyle=none;html=1;startArrow=block;startFill=1;endArrow=none;endFill=0;" parent="1" edge="1">
                    <mxGeometry relative="1" as="geometry">
                        <mxPoint x="1783.78" y="303.25" as="sourcePoint"/>
                        <mxPoint x="1758.78" y="303.25" as="targetPoint"/>
                    </mxGeometry>
                </mxCell>
                <mxCell id="21" value="" style="edgeStyle=none;html=1;startArrow=block;startFill=1;endArrow=none;endFill=0;" parent="1" edge="1">
                    <mxGeometry relative="1" as="geometry">
                        <mxPoint x="1783.78" y="303.25" as="sourcePoint"/>
                        <mxPoint x="1758.78" y="303.25" as="targetPoint"/>
                    </mxGeometry>
                </mxCell>
                <mxCell id="25" value="" style="edgeStyle=elbowEdgeStyle;html=1;startArrow=block;startFill=1;endArrow=none;endFill=0;" parent="1" edge="1">
                    <mxGeometry relative="1" as="geometry">
                        <mxPoint x="1783.78" y="303.25" as="sourcePoint"/>
                        <mxPoint x="1758.78" y="303.25" as="targetPoint"/>
                    </mxGeometry>
                </mxCell>
                <mxCell id="5" value="Mirror Motor(s)" style="rounded=0;whiteSpace=wrap;html=1;fillColor=#ffff88;strokeColor=#36393d;" parent="1" vertex="1">
                    <mxGeometry x="1783.78" y="281.25" width="120" height="141" as="geometry"/>
                </mxCell>
                <mxCell id="15" style="edgeStyle=none;html=1;entryX=0.892;entryY=0;entryDx=0;entryDy=0;entryPerimeter=0;startArrow=block;startFill=1;endArrow=block;endFill=1;exitX=0.007;exitY=0.102;exitDx=0;exitDy=0;exitPerimeter=0;" parent="1" source="6" edge="1">
                    <mxGeometry relative="1" as="geometry">
                        <mxPoint x="836.78" y="325.25" as="sourcePoint"/>
                        <mxPoint x="743.78" y="343.26200000000017" as="targetPoint"/>
                    </mxGeometry>
                </mxCell>
                <mxCell id="88" value="polar_coordinate_phi&lt;div&gt;polar_coordinate_rho&lt;/div&gt;" style="edgeLabel;html=1;align=center;verticalAlign=middle;resizable=0;points=[];" vertex="1" connectable="0" parent="15">
                    <mxGeometry x="0.1946" relative="1" as="geometry">
                        <mxPoint x="15" as="offset"/>
                    </mxGeometry>
                </mxCell>
                <mxCell id="6" value="Motor Controller" style="rounded=0;whiteSpace=wrap;html=1;verticalAlign=top;align=left;" parent="1" vertex="1">
                    <mxGeometry x="858.78" y="301.25" width="295" height="300" as="geometry"/>
                </mxCell>
                <mxCell id="8" value="Motor Driver" style="rounded=0;whiteSpace=wrap;html=1;fillColor=#ffff88;strokeColor=#36393d;" parent="1" vertex="1">
                    <mxGeometry x="1638.78" y="281.25" width="120" height="141" as="geometry"/>
                </mxCell>
                <mxCell id="10" value="Command Sequencer" style="rounded=0;whiteSpace=wrap;html=1;flipV=1;flipH=0;direction=south;verticalAlign=top;align=left;" parent="1" vertex="1">
                    <mxGeometry x="306" y="301" width="374" height="389" as="geometry"/>
                </mxCell>
                <mxCell id="17" style="edgeStyle=none;html=1;exitX=0;exitY=0.5;exitDx=0;exitDy=0;entryX=0.892;entryY=0;entryDx=0;entryDy=0;entryPerimeter=0;startArrow=block;startFill=1;endArrow=none;endFill=0;" parent="1" edge="1">
                    <mxGeometry relative="1" as="geometry">
                        <mxPoint x="1638.78" y="311.05" as="sourcePoint"/>
                        <mxPoint x="1613.78" y="311.29000000000025" as="targetPoint"/>
                    </mxGeometry>
                </mxCell>
                <mxCell id="18" style="edgeStyle=none;html=1;exitX=0;exitY=0.5;exitDx=0;exitDy=0;entryX=0.892;entryY=0;entryDx=0;entryDy=0;entryPerimeter=0;startArrow=block;startFill=1;endArrow=block;endFill=1;" parent="1" edge="1">
                    <mxGeometry relative="1" as="geometry">
                        <mxPoint x="1783.78" y="303.04999999999995" as="sourcePoint"/>
                        <mxPoint x="1758.78" y="303.2900000000002" as="targetPoint"/>
                    </mxGeometry>
                </mxCell>
                <mxCell id="22" style="edgeStyle=elbowEdgeStyle;html=1;exitX=0;exitY=0.25;exitDx=0;exitDy=0;entryX=0.892;entryY=0;entryDx=0;entryDy=0;entryPerimeter=0;startArrow=block;startFill=1;endArrow=block;endFill=1;" parent="1" source="4" edge="1">
                    <mxGeometry relative="1" as="geometry">
                        <mxPoint x="1928.78" y="311.04999999999995" as="sourcePoint"/>
                        <mxPoint x="1903.78" y="311.2900000000002" as="targetPoint"/>
                    </mxGeometry>
                </mxCell>
                <mxCell id="23" style="edgeStyle=none;html=1;exitX=0;exitY=0.671;exitDx=0;exitDy=0;entryX=0.892;entryY=0;entryDx=0;entryDy=0;entryPerimeter=0;startArrow=block;startFill=1;endArrow=none;endFill=0;exitPerimeter=0;" parent="1" source="4" edge="1">
                    <mxGeometry relative="1" as="geometry">
                        <mxPoint x="1928.78" y="401.24999999999994" as="sourcePoint"/>
                        <mxPoint x="1903.78" y="401.4900000000002" as="targetPoint"/>
                    </mxGeometry>
                </mxCell>
                <mxCell id="26" style="edgeStyle=none;html=1;exitX=0;exitY=0.5;exitDx=0;exitDy=0;entryX=0.892;entryY=0;entryDx=0;entryDy=0;entryPerimeter=0;startArrow=block;startFill=1;endArrow=block;endFill=1;" parent="1" edge="1">
                    <mxGeometry relative="1" as="geometry">
                        <mxPoint x="1638.78" y="391.04999999999995" as="sourcePoint"/>
                        <mxPoint x="1613.78" y="391.2900000000002" as="targetPoint"/>
                    </mxGeometry>
                </mxCell>
                <mxCell id="28" style="edgeStyle=none;html=1;exitX=0;exitY=0.5;exitDx=0;exitDy=0;startArrow=none;startFill=0;endArrow=block;endFill=1;entryX=0.136;entryY=0.018;entryDx=0;entryDy=0;entryPerimeter=0;" parent="1" edge="1">
                    <mxGeometry relative="1" as="geometry">
                        <mxPoint x="873.78" y="545.8" as="sourcePoint"/>
                        <mxPoint x="739.9999999999998" y="637.346" as="targetPoint"/>
                    </mxGeometry>
                </mxCell>
                <mxCell id="95" value="exp_act_mismatch_err" style="edgeLabel;html=1;align=center;verticalAlign=middle;resizable=0;points=[];" vertex="1" connectable="0" parent="28">
                    <mxGeometry x="-0.2536" y="-1" relative="1" as="geometry">
                        <mxPoint x="-24" y="2" as="offset"/>
                    </mxGeometry>
                </mxCell>
                <mxCell id="39" value="discrete hardware" style="rounded=0;whiteSpace=wrap;html=1;fillColor=#ffff88;strokeColor=#36393d;" parent="1" vertex="1">
                    <mxGeometry x="120" y="99" width="120" height="20" as="geometry"/>
                </mxCell>
                <mxCell id="48" style="edgeStyle=elbowEdgeStyle;html=1;exitX=1;exitY=0.5;exitDx=0;exitDy=0;startArrow=none;startFill=0;endArrow=none;endFill=0;strokeColor=#CC0000;strokeWidth=3;" parent="1" edge="1">
                    <mxGeometry relative="1" as="geometry">
                        <mxPoint x="1758.78" y="323.25" as="sourcePoint"/>
                        <mxPoint x="1783.78" y="323.25" as="targetPoint"/>
                    </mxGeometry>
                </mxCell>
                <mxCell id="49" value="power" style="rounded=0;whiteSpace=wrap;html=1;align=left;spacing=16;" parent="1" vertex="1">
                    <mxGeometry x="120" y="79" width="120" height="20" as="geometry"/>
                </mxCell>
                <mxCell id="50" style="edgeStyle=elbowEdgeStyle;html=1;startArrow=none;startFill=0;endArrow=none;endFill=0;strokeColor=#CC0000;strokeWidth=3;" parent="1" edge="1">
                    <mxGeometry relative="1" as="geometry">
                        <mxPoint x="180" y="88.86" as="sourcePoint"/>
                        <mxPoint x="230" y="88.86" as="targetPoint"/>
                        <Array as="points">
                            <mxPoint x="180" y="88.86"/>
                        </Array>
                    </mxGeometry>
                </mxCell>
                <mxCell id="52" value="cmd" style="rounded=0;whiteSpace=wrap;html=1;align=left;spacing=16;" parent="1" vertex="1">
                    <mxGeometry x="120" y="59" width="120" height="20" as="geometry"/>
                </mxCell>
                <mxCell id="54" style="edgeStyle=none;html=1;startArrow=block;startFill=1;endArrow=block;endFill=1;" parent="1" edge="1">
                    <mxGeometry relative="1" as="geometry">
                        <mxPoint x="230" y="69" as="sourcePoint"/>
                        <mxPoint x="180" y="69" as="targetPoint"/>
                    </mxGeometry>
                </mxCell>
                <mxCell id="55" value="raspberry pi 4" style="rounded=0;whiteSpace=wrap;html=1;fillColor=#fad9d5;strokeColor=#ae4132;" parent="1" vertex="1">
                    <mxGeometry x="120" y="119" width="120" height="20" as="geometry"/>
                </mxCell>
                <mxCell id="56" value="client terminal" style="rounded=0;whiteSpace=wrap;html=1;fillColor=#eeeeee;strokeColor=#36393d;" parent="1" vertex="1">
                    <mxGeometry x="121" y="139" width="120" height="20" as="geometry"/>
                </mxCell>
                <mxCell id="70" value="WiringPi Library" style="rounded=0;whiteSpace=wrap;html=1;verticalAlign=top;align=left;" vertex="1" parent="1">
                    <mxGeometry x="1033.78" y="340.75" width="60" height="240" as="geometry"/>
                </mxCell>
                <mxCell id="83" value="GPIO 2" style="swimlane;childLayout=stackLayout;resizeParent=1;resizeParentMax=0;horizontal=1;startSize=20;horizontalStack=0;html=1;" vertex="1" parent="1">
                    <mxGeometry x="1153.78" y="301.25" width="480" height="380" as="geometry"/>
                </mxCell>
                <mxCell id="84" value="Pull Up / Down" style="swimlane;startSize=20;horizontal=0;html=1;" vertex="1" parent="83">
                    <mxGeometry y="20" width="480" height="120" as="geometry"/>
                </mxCell>
                <mxCell id="85" value="Pull Value" style="swimlane;startSize=20;horizontal=0;html=1;" vertex="1" parent="83">
                    <mxGeometry y="140" width="480" height="120" as="geometry"/>
                </mxCell>
                <mxCell id="86" value="Lane 3" style="swimlane;startSize=20;horizontal=0;html=1;" vertex="1" parent="83">
                    <mxGeometry y="260" width="480" height="120" as="geometry"/>
                </mxCell>
                <mxCell id="89" value="Virtual Motor Mapper" style="rounded=0;whiteSpace=wrap;html=1;verticalAlign=top;align=left;" vertex="1" parent="1">
                    <mxGeometry x="867.78" y="520.25" width="100" height="69.5" as="geometry"/>
                </mxCell>
                <mxCell id="91" value="Reference Detector" style="rounded=0;whiteSpace=wrap;html=1;verticalAlign=top;align=left;" vertex="1" parent="1">
                    <mxGeometry x="1053.78" y="621.25" width="100" height="69.5" as="geometry"/>
                </mxCell>
                <mxCell id="92" style="edgeStyle=orthogonalEdgeStyle;html=1;entryX=0;entryY=0.5;entryDx=0;entryDy=0;startArrow=block;startFill=1;endArrow=none;endFill=0;exitX=0.75;exitY=1;exitDx=0;exitDy=0;rounded=0;curved=0;" edge="1" parent="1" source="89" target="91">
                    <mxGeometry relative="1" as="geometry">
                        <mxPoint x="561.28" y="415.04999999999995" as="sourcePoint"/>
                        <mxPoint x="536.28" y="415.2900000000002" as="targetPoint"/>
                    </mxGeometry>
                </mxCell>
                <mxCell id="93" value="waypoint_flag" style="edgeLabel;html=1;align=center;verticalAlign=middle;resizable=0;points=[];" vertex="1" connectable="0" parent="92">
                    <mxGeometry x="-0.1934" y="-2" relative="1" as="geometry">
                        <mxPoint x="-2" y="-6" as="offset"/>
                    </mxGeometry>
                </mxCell>
                <mxCell id="96" value="Cartesian2Polar Converter" style="rounded=0;whiteSpace=wrap;html=1;verticalAlign=top;align=left;" vertex="1" parent="1">
                    <mxGeometry x="540" y="525.75" width="100" height="69.5" as="geometry"/>
                </mxCell>
                <mxCell id="97" value="Motor and Virtual Motor Initializer" style="rounded=0;whiteSpace=wrap;html=1;verticalAlign=top;align=left;" vertex="1" parent="1">
                    <mxGeometry x="410" y="520" width="100" height="69.5" as="geometry"/>
                </mxCell>
                <mxCell id="107" value="" style="edgeStyle=none;html=1;" edge="1" parent="1" source="98" target="105">
                    <mxGeometry relative="1" as="geometry"/>
                </mxCell>
                <mxCell id="110" value="" style="edgeStyle=none;html=1;startArrow=block;startFill=1;" edge="1" parent="1" source="98" target="108">
                    <mxGeometry relative="1" as="geometry"/>
                </mxCell>
                <mxCell id="111" value="fifo_empty&lt;div&gt;fifo_full&lt;/div&gt;&lt;div&gt;fifo_almost_full&lt;/div&gt;&lt;div&gt;rdata&lt;/div&gt;" style="edgeLabel;html=1;align=center;verticalAlign=middle;resizable=0;points=[];" vertex="1" connectable="0" parent="110">
                    <mxGeometry x="0.2447" y="1" relative="1" as="geometry">
                        <mxPoint x="-17" as="offset"/>
                    </mxGeometry>
                </mxCell>
                <mxCell id="98" value="fifo" style="shape=datastore;whiteSpace=wrap;html=1;" vertex="1" parent="1">
                    <mxGeometry x="336" y="340.5" width="60" height="60" as="geometry"/>
                </mxCell>
                <mxCell id="102" value="Image Processor" style="rounded=0;whiteSpace=wrap;html=1;flipV=1;flipH=0;direction=south;verticalAlign=top;align=left;" vertex="1" parent="1">
                    <mxGeometry x="150" y="301" width="135" height="300" as="geometry"/>
                </mxCell>
                <mxCell id="100" value="" style="edgeStyle=none;html=1;" edge="1" parent="1" source="99" target="98">
                    <mxGeometry relative="1" as="geometry"/>
                </mxCell>
                <mxCell id="101" value="image_matrix" style="edgeLabel;html=1;align=center;verticalAlign=middle;resizable=0;points=[];" vertex="1" connectable="0" parent="100">
                    <mxGeometry x="-0.1122" y="1" relative="1" as="geometry">
                        <mxPoint as="offset"/>
                    </mxGeometry>
                </mxCell>
                <mxCell id="99" value="" style="sketch=0;points=[[0.015,0.015,0],[0.985,0.015,0],[0.985,0.985,0],[0.015,0.985,0],[0.25,0,0],[0.5,0,0],[0.75,0,0],[1,0.25,0],[1,0.5,0],[1,0.75,0],[0.75,1,0],[0.5,1,0],[0.25,1,0],[0,0.75,0],[0,0.5,0],[0,0.25,0]];verticalLabelPosition=bottom;html=1;verticalAlign=top;aspect=fixed;align=center;pointerEvents=1;shape=mxgraph.cisco19.rect;prIcon=virtual_matrix_switch;fillColor=#FAFAFA;strokeColor=#005073;" vertex="1" parent="1">
                    <mxGeometry x="190" y="330" width="50" height="50" as="geometry"/>
                </mxCell>
                <mxCell id="103" value="Motor and Virtual Motor Initializer" style="rounded=0;whiteSpace=wrap;html=1;verticalAlign=top;align=left;" vertex="1" parent="1">
                    <mxGeometry x="757.78" y="640.25" width="100" height="69.5" as="geometry"/>
                </mxCell>
                <mxCell id="105" value="current image cache" style="shape=process;whiteSpace=wrap;html=1;backgroundOutline=1;" vertex="1" parent="1">
                    <mxGeometry x="316" y="435.75" width="100" height="50" as="geometry"/>
                </mxCell>
                <mxCell id="108" value="Image Sequencer" style="rounded=0;whiteSpace=wrap;html=1;verticalAlign=top;align=left;" vertex="1" parent="1">
                    <mxGeometry x="510" y="340" width="140" height="146" as="geometry"/>
                </mxCell>
                <mxCell id="112" value="" style="edgeStyle=none;html=1;startArrow=block;startFill=1;" edge="1" parent="1" source="105" target="108">
                    <mxGeometry relative="1" as="geometry">
                        <mxPoint x="390" y="435.5" as="sourcePoint"/>
                        <mxPoint x="504" y="458.5" as="targetPoint"/>
                    </mxGeometry>
                </mxCell>
                <mxCell id="113" value="&lt;div&gt;rdata&lt;/div&gt;&lt;div&gt;wdata&lt;/div&gt;" style="edgeLabel;html=1;align=center;verticalAlign=middle;resizable=0;points=[];" vertex="1" connectable="0" parent="112">
                    <mxGeometry x="0.2447" y="1" relative="1" as="geometry">
                        <mxPoint x="-17" as="offset"/>
                    </mxGeometry>
                </mxCell>
                <mxCell id="114" value="Polar2Step Converter" style="rounded=0;whiteSpace=wrap;html=1;verticalAlign=top;align=left;" vertex="1" parent="1">
                    <mxGeometry x="867.78" y="331" width="100" height="69.5" as="geometry"/>
                </mxCell>
                <mxCell id="115" value="Polar2Step Converter" style="rounded=0;whiteSpace=wrap;html=1;verticalAlign=top;align=left;" vertex="1" parent="1">
                    <mxGeometry x="867.78" y="410" width="100" height="69.5" as="geometry"/>
                </mxCell>
            </root>
        </mxGraphModel>
    </diagram>
</mxfile>